PathFileType	4	(X/Y/Z)	/Users/itak/Documents/Research/Walk-IL/dataset/trc/00032_00004.trc
DataRate	CameraRate	NumFrames	NumMarkers	Units	OrigDataRate	OrigDataStartFrame	OrigNumFrames
100.000000	100.000000	4	53	mm	100.000000	580	774
Frame#	Time	RPSI			LPSI			L3			STRN			T10			C7			CLAV			RBAK			LBAK			LSHO			LUPA			LAEL			LAOL			LWTS			LWPS			LFRA			LIFD			LHPS			LHTS			RSHO			RUPA			RAEL			RAOL			RWTS			RWPS			RFRA			RIFD			RHTS			RHPS			RBHD			LFHD			RFHD			LBHD			LHIP			RHIP			RASI			LASI			LKNE			LTHI			LANK			LTIP			LTOE			LMT1			LMT5			LHEE			RKNE			RTHI			RANK			RTIP			RTOE			RMT1			RMT5			RHEE			
		X1	Y1	Z1	X2	Y2	Z2	X3	Y3	Z3	X4	Y4	Z4	X5	Y5	Z5	X6	Y6	Z6	X7	Y7	Z7	X8	Y8	Z8	X9	Y9	Z9	X10	Y10	Z10	X11	Y11	Z11	X12	Y12	Z12	X13	Y13	Z13	X14	Y14	Z14	X15	Y15	Z15	X16	Y16	Z16	X17	Y17	Z17	X18	Y18	Z18	X19	Y19	Z19	X20	Y20	Z20	X21	Y21	Z21	X22	Y22	Z22	X23	Y23	Z23	X24	Y24	Z24	X25	Y25	Z25	X26	Y26	Z26	X27	Y27	Z27	X28	Y28	Z28	X29	Y29	Z29	X30	Y30	Z30	X31	Y31	Z31	X32	Y32	Z32	X33	Y33	Z33	X34	Y34	Z34	X35	Y35	Z35	X36	Y36	Z36	X37	Y37	Z37	X38	Y38	Z38	X39	Y39	Z39	X40	Y40	Z40	X41	Y41	Z41	X42	Y42	Z42	X43	Y43	Z43	X44	Y44	Z44	X45	Y45	Z45	X46	Y46	Z46	X47	Y47	Z47	X48	Y48	Z48	X49	Y49	Z49	X50	Y50	Z50	X51	Y51	Z51	X52	Y52	Z52	X53	Y53	Z53	

581	5.8	748.3909301757812	1038.144775390625	498.0088806152344	885.69091796875	1037.48291015625	586.4275512695312	830.620361328125	1101.557495117188	540.4666748046875	677.9722290039062	1287.662109375	706.7301635742188	851.1235961914062	1245.426025390625	523.33740234375	811.1158447265625	1512.404418945312	566.2310180664062	702.9012451171875	1413.488159179688	673.7031860351562	801.993896484375	1371.276611328125	473.3750915527344	896.1651000976562	1480.340209960938	621.809814453125	874.6971435546875	1486.917236328125	745.2392578125	964.3119506835938	1375.068603515625	783.7762451171875	1011.998413085938	1166.829345703125	819.3690795898438	993.2091064453125	1141.286376953125	717.6251831054688	898.5888061523438	925.58349609375	870.7755126953125	985.5363159179688	905.1996459960938	864.3086547851562	1005.638549804688	1054.982055664062	850.6624755859375	857.2199096679688	746.0494995117188	909.69921875	953.4994506835938	821.513427734375	898.8845825195312	885.7899780273438	838.5460815429688	911.25830078125	637.14501953125	1481.53125	495.3205871582031	606.1964111328125	1409.401733398438	433.8016662597656	643.6367797851562	1150.93603515625	368.77197265625	705.6228637695312	1123.453979492188	442.6465759277344	573.709228515625	889.61669921875	477.1013793945312	578.5360107421875	872.4373779296875	385.4658508300781	627.1009521484375	1073.86279296875	361.8440856933594	579.67041015625	707.8963623046875	514.46435546875	545.3433227539062	781.0406494140625	494.8445739746094	553.8372802734375	770.8784790039062	420.0656433105469	745.22216796875	1698.08935546875	688.0348510742188	537.4067993164062	1637.147583007812	661.5379638671875	582.8992309570312	1645.814575195312	749.0769653320312	675.619384765625	1680.79541015625	563.2646484375	928.7152709960938	937.8833618164062	723.4263305664062	599.569580078125	927.5908203125	546.381103515625	608.8369140625	965.7108764648438	668.7101440429688	809.9291381835938	980.8757934570312	789.9783325195312	918.3082885742188	489.9053344726562	705.5496826171875	936.53369140625	635.0789794921875	711.03369140625	1097.742309570312	104.3298645019531	406.2791748046875	1034.66064453125	315.3545227050781	546.7235107421875	939.2350463867188	30.23937034606934	531.987060546875	953.7291259765625	51.61812591552734	483.5565795898438	1058.746704101562	33.22751235961914	500.4224548339844	1083.752197265625	154.7096099853516	337.7903137207031	562.35107421875	523.2547607421875	693.8142700195312	566.2935180664062	774.4012451171875	594.5353393554688	619.2141723632812	37.56637191772461	747.1409912109375	564.5640258789062	395.2090759277344	708.2093505859375	453.8464660644531	47.27717590332031	911.674560546875	522.0904541015625	49.4088020324707	901.4658813476562	485.8123168945312	42.04605484008789	812.4117431640625	689.038330078125	38.8786506652832	753.6614379882812	
582	5.81	743.3199462890625	1039.520263671875	504.2913818359375	879.8323364257812	1038.739379882812	593.8438110351562	825.1566162109375	1102.794921875	547.3182373046875	671.2962036132812	1289.17529296875	712.244873046875	845.7944946289062	1246.564819335938	530.0169067382812	805.5760498046875	1513.598266601562	572.22705078125	696.6207885742188	1414.929565429688	679.1973876953125	796.9138793945312	1372.352172851562	479.5323791503906	890.2230224609375	1481.671875	628.3386840820312	867.97216796875	1488.460693359375	751.6701049804688	957.4580078125	1376.5732421875	790.419677734375	1005.22509765625	1168.126098632812	825.0516967773438	986.9554443359375	1143.26806640625	723.0772705078125	893.2344360351562	925.4984130859375	873.951171875	980.3196411132812	905.8551025390625	867.5326538085938	999.4458618164062	1055.931884765625	855.3648071289062	852.5291748046875	745.4910278320312	911.5272827148438	948.809814453125	821.5419921875	901.064208984375	880.96435546875	837.951416015625	913.4417724609375	631.9563598632812	1482.726440429688	500.4248046875	601.3814697265625	1410.601806640625	438.6919250488281	638.6776733398438	1151.871215820312	374.6688232421875	700.4230346679688	1124.584838867188	448.8012084960938	567.9300537109375	891.1768188476562	484.0166320800781	572.9984130859375	873.51123046875	392.521240234375	622.0701904296875	1074.655517578125	367.9849548339844	573.5851440429688	709.6298828125	522.3086547851562	539.3948974609375	782.7332153320312	502.3019714355469	548.0687866210938	772.164794921875	427.5379028320312	738.746826171875	1699.4130859375	693.510498046875	531.1343994140625	1638.0517578125	666.355224609375	576.3504638671875	1646.80810546875	754.0342407226562	669.5216064453125	1682.00146484375	568.50048828125	921.3384399414062	938.8787231445312	731.4957275390625	594.1143798828125	928.8438110351562	551.1858520507812	602.2626342773438	967.068359375	673.55908203125	802.240966796875	982.52783203125	796.8763427734375	909.4822387695312	489.5721740722656	719.8140258789062	928.1130981445312	635.3643188476562	723.2140502929688	1095.952514648438	112.1748657226562	413.0596313476562	1028.814453125	318.288818359375	558.6922607421875	938.5721435546875	29.59764289855957	533.000732421875	952.633544921875	52.99560165405273	485.953857421875	1057.422973632812	36.20455169677734	503.4683837890625	1081.58056640625	164.6861114501953	346.6555480957031	559.059326171875	523.529296875	698.0807495117188	561.3499145507812	775.1837158203125	599.4158935546875	619.0916748046875	37.9266357421875	747.5958862304688	561.9374389648438	395.3984985351562	711.7147216796875	453.7094116210938	45.40949630737305	912.7884521484375	521.9810180664062	48.13568878173828	902.3776245117188	485.7284851074219	41.84457778930664	813.3568115234375	688.8770141601562	39.19765472412109	754.0040283203125	
583	5.82	738.2747192382812	1040.848510742188	510.4405212402344	874.0045776367188	1039.931396484375	601.04248046875	819.7112426757812	1103.998779296875	554.0264282226562	664.6871948242188	1290.628051757812	717.6235961914062	840.470458984375	1247.673828125	536.5905151367188	800.1076049804688	1514.76513671875	578.1747436523438	690.3951416015625	1416.30810546875	684.5966186523438	791.9063110351562	1373.41650390625	485.6079406738281	884.3458251953125	1482.93359375	634.8312377929688	861.2869873046875	1489.908569335938	758.061767578125	950.6491088867188	1377.985107421875	797.0460815429688	998.5390014648438	1169.348022460938	830.7630004882812	980.83251953125	1145.168701171875	728.5587158203125	887.9255981445312	925.3871459960938	877.0846557617188	975.1595458984375	906.47998046875	870.8094482421875	993.3076171875	1056.82373046875	860.09912109375	847.8512573242188	744.93408203125	913.2921752929688	944.1317138671875	821.5540771484375	903.2640991210938	876.1515502929688	837.3583984375	915.562255859375	626.85546875	1483.908203125	505.4428100585938	596.6701049804688	1411.831176757812	443.4684448242188	633.8035888671875	1152.8349609375	380.3629455566406	695.3074951171875	1125.729248046875	454.7486572265625	562.030029296875	892.8864135742188	490.8442687988281	567.3895874023438	874.6570434570312	399.5222473144531	617.0686645507812	1075.468872070312	373.9726867675781	567.276123046875	711.5280151367188	530.2150268554688	533.2156982421875	784.6222534179688	509.7326354980469	542.1209716796875	773.579833984375	435.0355224609375	732.3739013671875	1700.708740234375	698.9273681640625	524.9703979492188	1638.9755859375	671.0587158203125	569.8932495117188	1647.81298828125	758.8917236328125	663.5661010742188	1683.18798828125	573.662109375	914.0422973632812	939.8192138671875	739.3624267578125	588.7138671875	929.9981079101562	555.8833618164062	595.750732421875	968.3088989257812	678.2747802734375	794.654052734375	984.1188354492188	803.5376586914062	900.23046875	489.2447814941406	734.3062744140625	919.494873046875	635.6046142578125	735.5279541015625	1093.865966796875	120.5736770629883	420.5420532226562	1022.449279785156	321.1964111328125	571.2474975585938	937.7041015625	28.86325645446777	534.457275390625	951.263671875	54.80820465087891	488.9004211425781	1055.844360351562	40.04595184326172	507.1122131347656	1079.08642578125	175.0220184326172	356.207763671875	556.0271606445312	523.7131958007812	702.065673828125	556.55712890625	775.88232421875	604.2154541015625	619.0071411132812	38.24111938476562	747.9940795898438	559.5221557617188	395.516357421875	714.9020385742188	453.6036376953125	43.86574172973633	913.7633666992188	521.9003295898438	47.06939315795898	903.1761474609375	485.66650390625	41.69805526733398	814.1876831054688	688.7670288085938	39.46391677856445	754.3240356445312	
584	5.83	733.3138427734375	1042.144409179688	516.44970703125	868.2617797851562	1041.03564453125	608.054443359375	814.3444213867188	1105.159790039062	560.5975341796875	658.170166015625	1291.996826171875	722.8671875	835.18994140625	1248.747680664062	543.056640625	794.7149047851562	1515.895751953125	584.0750732421875	684.2428588867188	1417.608276367188	689.9037475585938	786.9832763671875	1374.459838867188	491.6010437011719	878.54541015625	1484.11865234375	641.287109375	854.6596069335938	1491.238403320312	764.413330078125	943.8960571289062	1379.274780273438	803.6484375	991.9385986328125	1170.46484375	836.5022583007812	974.8275756835938	1146.953491210938	734.0712890625	882.6537475585938	925.2384643554688	880.1982421875	970.0516357421875	907.0474853515625	874.1552124023438	987.2202758789062	1057.62841796875	864.872802734375	843.1861572265625	744.3661499023438	915.0316162109375	939.4596557617188	821.5299682617188	905.5164184570312	871.3516235351562	836.7543334960938	917.6571044921875	621.8507690429688	1485.0546875	510.3759460449219	592.0625	1413.062133789062	448.1388244628906	629.0222778320312	1153.8037109375	385.8566284179688	690.2874755859375	1126.862182617188	460.4886169433594	556.0362548828125	894.7186889648438	497.5784301757812	561.7178344726562	875.8582763671875	406.4550170898438	612.1102294921875	1076.284545898438	379.7955627441406	560.738037109375	713.5728149414062	538.1699829101562	526.8378295898438	786.6824951171875	517.122802734375	536.0054931640625	775.103271484375	442.54150390625	726.1076049804688	1701.959228515625	704.28857421875	518.917236328125	1639.911987304688	675.642578125	563.5319213867188	1648.8193359375	763.6512451171875	657.76708984375	1684.340942382812	578.753662109375	906.87841796875	940.6593627929688	747.0435791015625	583.4132080078125	931.1006469726562	560.46435546875	589.3389892578125	969.447998046875	682.8670654296875	787.219482421875	985.6248779296875	809.9899291992188	890.5155029296875	488.9352722167969	748.88525390625	910.6749267578125	635.78662109375	747.8927612304688	1091.466064453125	129.4251861572266	428.7212524414062	1015.565063476562	324.0934448242188	584.26708984375	936.6182861328125	28.16703414916992	536.5343627929688	949.6104736328125	57.14065551757812	492.52197265625	1054.005493164062	44.79720687866211	511.4949951171875	1076.261352539062	185.6003875732422	366.3561706542969	553.1394653320312	523.8330078125	705.7391967773438	551.9091796875	776.5469360351562	608.8876342773438	618.942626953125	38.49457550048828	748.312744140625	557.2501220703125	395.5726623535156	717.756103515625	453.520751953125	42.6581916809082	914.5716552734375	521.8321533203125	46.22719955444336	903.8220825195312	485.607666015625	41.58161163330078	814.8609619140625	688.6964721679688	39.67308044433594	754.5938720703125	
